<svg width="24" height="32" viewBox="0 0 24 32" fill="none" xmlns="http://www.w3.org/2000/svg">
<path d="M3 10.25C3 8.45507 4.45507 7 6.25 7H17.75C19.5449 7 21 8.45507 21 10.25V21.75C21 23.5449 19.5449 25 17.75 25H6.25C4.45507 25 3 23.5449 3 21.75V10.25ZM6.25 8.5C5.2835 8.5 4.5 9.2835 4.5 10.25V21.75C4.5 22.7165 5.2835 23.5 6.25 23.5H9V8.5H6.25ZM10.5 8.5V18H19.5V10.25C19.5 9.2835 18.7165 8.5 17.75 8.5H10.5ZM19.5 19.5H10.5V23.5H17.75C18.7165 23.5 19.5 22.7165 19.5 21.75V19.5Z" fill="white"/>
</svg>
