<svg width="28" height="37" viewBox="0 0 28 37" fill="none" xmlns="http://www.w3.org/2000/svg">
<path d="M17.25 23C18.4926 23 19.5 24.0074 19.5 25.25V26.752L19.4921 26.8604C19.1814 28.9866 17.2715 30.009 14.0668 30.009C10.8736 30.009 8.9333 28.9983 8.51446 26.8966L8.5 26.75V25.25C8.5 24.0074 9.50736 23 10.75 23H17.25ZM17.25 24.5H10.75C10.3358 24.5 10 24.8358 10 25.25V26.6704C10.2798 27.8708 11.5506 28.509 14.0668 28.509C16.5829 28.509 17.7966 27.8777 18 26.6932V25.25C18 24.8358 17.6642 24.5 17.25 24.5ZM18.2436 16.9989L23.75 17C24.9926 17 26 18.0074 26 19.25V20.752L25.9921 20.8604C25.6814 22.9866 23.7715 24.009 20.5668 24.009L20.2519 24.0057C19.9569 23.2921 19.4151 22.7078 18.7334 22.3575C19.2482 22.4584 19.8581 22.509 20.5668 22.509C23.0829 22.509 24.2966 21.8777 24.5 20.6932V19.25C24.5 18.8358 24.1642 18.5 23.75 18.5H18.5C18.5 17.9736 18.4096 17.4684 18.2436 16.9989ZM4.25 17L9.75644 16.9989C9.61805 17.3901 9.53223 17.8062 9.50746 18.2386L9.5 18.5H4.25C3.83579 18.5 3.5 18.8358 3.5 19.25V20.6704C3.77979 21.8708 5.05063 22.509 7.56679 22.509C8.18886 22.509 8.73133 22.4704 9.1986 22.3944C8.54784 22.7478 8.03196 23.3174 7.74635 24.0066L7.56679 24.009C4.37361 24.009 2.4333 22.9983 2.01446 20.8966L2 20.75V19.25C2 18.0074 3.00736 17 4.25 17ZM14 15C15.933 15 17.5 16.567 17.5 18.5C17.5 20.433 15.933 22 14 22C12.067 22 10.5 20.433 10.5 18.5C10.5 16.567 12.067 15 14 15ZM14 16.5C12.8954 16.5 12 17.3954 12 18.5C12 19.6046 12.8954 20.5 14 20.5C15.1046 20.5 16 19.6046 16 18.5C16 17.3954 15.1046 16.5 14 16.5ZM20.5 9C22.433 9 24 10.567 24 12.5C24 14.433 22.433 16 20.5 16C18.567 16 17 14.433 17 12.5C17 10.567 18.567 9 20.5 9ZM7.5 9C9.433 9 11 10.567 11 12.5C11 14.433 9.433 16 7.5 16C5.567 16 4 14.433 4 12.5C4 10.567 5.567 9 7.5 9ZM20.5 10.5C19.3954 10.5 18.5 11.3954 18.5 12.5C18.5 13.6046 19.3954 14.5 20.5 14.5C21.6046 14.5 22.5 13.6046 22.5 12.5C22.5 11.3954 21.6046 10.5 20.5 10.5ZM7.5 10.5C6.39543 10.5 5.5 11.3954 5.5 12.5C5.5 13.6046 6.39543 14.5 7.5 14.5C8.60457 14.5 9.5 13.6046 9.5 12.5C9.5 11.3954 8.60457 10.5 7.5 10.5Z" fill="white"/>
</svg>
