<svg width="24" height="31" viewBox="0 0 24 31" fill="none" xmlns="http://www.w3.org/2000/svg">
<path d="M20.9984 10.2497C20.9984 8.45495 19.5435 7 17.7487 7H6.24971C4.45495 7 3 8.45495 3 10.2497V21.7487C3 23.5435 4.45495 24.9984 6.24971 24.9984H11.1644L11.5202 23.5754C11.5266 23.5497 11.5333 23.5241 11.5402 23.4985H6.24971C5.2833 23.4985 4.49987 22.7151 4.49987 21.7487V12.4995H19.4985V15.2317C19.9774 15.0412 20.492 14.9678 20.9984 15.0115V10.2497ZM6.24971 8.49987H17.7487C18.7151 8.49987 19.4985 9.2833 19.4985 10.2497V10.9996H4.49987V10.2497C4.49987 9.2833 5.2833 8.49987 6.24971 8.49987ZM19.0984 16.6686L13.1965 22.5705C12.8524 22.9146 12.6083 23.3458 12.4903 23.8179L12.0327 25.6484C11.8336 26.4445 12.5547 27.1656 13.3508 26.9666L15.1813 26.5089C15.6534 26.3909 16.0846 26.1468 16.4287 25.8027L22.3306 19.9008C23.2231 19.0082 23.2231 17.5611 22.3306 16.6686C21.4381 15.7761 19.991 15.7761 19.0984 16.6686Z" fill="white"/>
</svg>
