<svg width="24" height="31" viewBox="0 0 24 31" fill="none" xmlns="http://www.w3.org/2000/svg">
<path d="M12.0124 6.25C12.7464 6.25846 13.4775 6.34326 14.1939 6.50304C14.5067 6.57279 14.7406 6.83351 14.7761 7.15196L14.9463 8.67881C15.0233 9.37986 15.6152 9.91084 16.3209 9.91158C16.5105 9.91188 16.6982 9.87238 16.8734 9.79483L18.2741 9.17956C18.5654 9.05159 18.9057 9.12136 19.1232 9.35362C20.1354 10.4346 20.8892 11.7311 21.3279 13.1456C21.4225 13.4506 21.3137 13.782 21.0566 13.9715L19.8151 14.8866C19.461 15.1468 19.2518 15.56 19.2518 15.9995C19.2518 16.4389 19.461 16.8521 19.8159 17.1129L21.0585 18.0283C21.3156 18.2177 21.4246 18.5492 21.3299 18.8543C20.8914 20.2685 20.138 21.5649 19.1264 22.6461C18.9091 22.8783 18.569 22.9483 18.2777 22.8206L16.8714 22.2045C16.4691 22.0284 16.007 22.0542 15.6268 22.274C15.2466 22.4937 14.9935 22.8812 14.9452 23.3177L14.7761 24.8444C14.7413 25.1592 14.5124 25.4182 14.2043 25.4915C12.7558 25.8361 11.2467 25.8361 9.79828 25.4915C9.49015 25.4182 9.26129 25.1592 9.22643 24.8444L9.0576 23.32C9.00802 22.8843 8.75459 22.498 8.37467 22.279C7.99475 22.06 7.53345 22.0343 7.13244 22.2094L5.72582 22.8256C5.43446 22.9533 5.09428 22.8833 4.87703 22.6509C3.86487 21.5685 3.11144 20.2705 2.67344 18.8548C2.57911 18.5499 2.68811 18.2186 2.94509 18.0293L4.18842 17.1133C4.54256 16.8531 4.75172 16.4399 4.75172 16.0005C4.75172 15.561 4.54256 15.1478 4.18796 14.8873L2.94541 13.9728C2.68804 13.7834 2.57894 13.4518 2.67361 13.1466C3.11236 11.7321 3.86619 10.4356 4.87837 9.35462C5.09584 9.12236 5.43618 9.05259 5.72749 9.18056L7.12786 9.79572C7.53081 9.97256 7.99404 9.94585 8.37601 9.72269C8.75633 9.50209 9.00953 9.11422 9.05841 8.67764L9.22849 7.15196C9.26401 6.83335 9.49811 6.57254 9.81105 6.50294C10.5283 6.34342 11.2602 6.25865 12.0124 6.25ZM11.9999 13C10.3431 13 8.99994 14.3431 8.99994 16C8.99994 17.6568 10.3431 19 11.9999 19C13.6568 19 14.9999 17.6568 14.9999 16C14.9999 14.3431 13.6568 13 11.9999 13Z" fill="white"/>
</svg>
