<svg width="24" height="31" viewBox="0 0 24 31" fill="none" xmlns="http://www.w3.org/2000/svg">
<path d="M15.5 17.75C15.5 17.3358 15.8358 17 16.25 17H18.25C18.6642 17 19 17.3358 19 17.75C19 18.1642 18.6642 18.5 18.25 18.5H16.25C15.8358 18.5 15.5 18.1642 15.5 17.75ZM3 9H3.01373C3.13809 7.87501 4.09186 7 5.25 7H16.75C17.9926 7 19 8.00736 19 9.25V10.087C20.4333 10.4255 21.5 11.7132 21.5 13.25V21.75C21.5 23.5449 20.0449 25 18.25 25H6.25C4.45508 25 3 23.5449 3 21.75V9ZM18.25 11.5H4.5V21.75C4.5 22.7165 5.2835 23.5 6.25 23.5H18.25C19.2165 23.5 20 22.7165 20 21.75V13.25C20 12.2835 19.2165 11.5 18.25 11.5ZM17.5 10V9.25C17.5 8.83579 17.1642 8.5 16.75 8.5H5.25C4.83579 8.5 4.5 8.83579 4.5 9.25C4.5 9.66421 4.83579 10 5.25 10H17.5Z" fill="white"/>
</svg>
