<svg width="16" height="21" viewBox="0 0 16 21" fill="none" xmlns="http://www.w3.org/2000/svg">
<path d="M13.9071 0.452236C14.8736 0.465401 15.6463 1.2595 15.6331 2.22591L15.4492 15.7247C15.4361 16.6911 14.642 17.4638 13.6756 17.4507L5.17636 17.3349C4.20995 17.3217 3.43719 16.5276 3.45036 15.5612L3.63426 2.06245C3.64742 1.09604 4.44152 0.323282 5.40793 0.336448L13.9071 0.452236ZM14.3662 3.45877L13.3663 3.44515C12.9521 3.4395 12.621 3.09917 12.6266 2.685L12.6402 1.68509L11.1404 1.66466L11.1268 2.66457C11.1098 3.90709 12.1034 4.92808 13.3459 4.94501L14.3458 4.95863L14.3662 3.45877ZM7.04198 8.8595C7.02506 10.102 8.0186 11.123 9.26112 11.1399C10.5037 11.1569 11.5246 10.1633 11.5416 8.9208C11.5585 7.67827 10.5649 6.65728 9.32242 6.64036C8.0799 6.62343 7.05891 7.61697 7.04198 8.8595ZM6.64079 1.60336L6.62717 2.60327C6.62153 3.01744 6.2812 3.34862 5.86702 3.34298L4.86711 3.32936L4.84668 4.82922L5.84659 4.84284C7.08911 4.85977 8.1101 3.86623 8.12703 2.6237L8.14065 1.62379L6.64079 1.60336ZM5.71718 14.342C6.13135 14.3476 6.46253 14.6879 6.45689 15.1021L6.44327 16.102L7.94313 16.1224L7.95675 15.1225C7.97368 13.88 6.98014 12.859 5.73761 12.8421L4.7377 12.8285L4.71727 14.3283L5.71718 14.342ZM13.2165 14.4441L14.2164 14.4577L14.2368 12.9579L13.2369 12.9443C11.9944 12.9273 10.9734 13.9209 10.9565 15.1634L10.9429 16.1633L12.4427 16.1837L12.4563 15.1838C12.462 14.7697 12.8023 14.4385 13.2165 14.4441ZM2.12552 2.6933C1.22184 3.19975 0.60539 4.16096 0.590264 5.27128L0.450638 15.5203C0.414902 18.1434 2.51238 20.2989 5.13549 20.3346L10.385 20.4061C11.4953 20.4212 12.473 19.8312 13.0039 18.9416L5.15592 18.8347C3.36117 18.8103 1.92605 17.3355 1.9505 15.5408L2.12552 2.6933Z" fill="white"/>
</svg>
